<?xml version="1.0" encoding="UTF-8"?><svg id="Calque_2" xmlns="http://www.w3.org/2000/svg" viewBox="0 0 88.56 89.79"><defs><style>.cls-1{fill:#cc1517;}.cls-1,.cls-2{stroke-width:0px;}.cls-2{fill:#fff;}</style></defs><g id="Calque_1-2"><g id="yVxffL"><path class="cls-1" d="M87.88,45.27c-4.25-4.41-8.48-8.84-12.72-13.25-.31-.32-.44-.63-.44-1.07.01-6.08,0-12.17,0-18.25,0-1.76-1.03-2.78-2.78-2.78-2.9,0-5.8,0-8.7,0-1.76,0-2.78,1.02-2.79,2.77,0,.98.01,1.96-.01,2.94,0,.17-.12.39-.26.48-.08.05-.31-.1-.46-.19-.1-.06-.17-.17-.26-.26-4.14-4.32-8.26-8.65-12.43-12.94-.92-.95-1.95-1.78-2.94-2.67.04-.09-.07,0-.16.1-2.09,2.18-4.19,4.36-6.28,6.54-8.09,8.44-16.18,16.89-24.28,25.33-4.27,4.45-8.53,8.9-12.8,13.34-.44.46-.68.96-.56,1.6.16.78.78,1.25,1.72,1.25,2.23,0,4.45,0,6.68,0,1.09,0,1.7.62,1.73,1.71.01.43,0,.86,0,1.29,0,12.58,0,25.15,0,37.73v.86h68.21v-2.08c0-12.52,0-25.03,0-37.55,0-1.41.57-1.97,1.97-1.97,2.08,0,4.17,0,6.25,0,.79,0,1.48-.16,1.81-.96.33-.79.02-1.4-.54-1.98ZM86.28,46.67c-2.02,0-4.04,0-6.06,0-2.07,0-3.35,1.29-3.35,3.38,0,12.47,0,24.95,0,37.43v.78H11.69v-.78c0-12.43,0-24.87,0-37.3,0-2.27-1.25-3.5-3.53-3.5H1.45C15.79,31.72,30.01,16.89,44.27,2.01c1.15,1.2,2.26,2.36,3.38,3.52,3.62,3.77,7.23,7.54,10.85,11.31.78.82,1.53,1.04,2.34.68.91-.41,1.17-1.17,1.15-2.11-.02-.92,0-1.84,0-2.76,0-.86.37-1.22,1.24-1.22,2.86,0,5.72,0,8.58,0,1.09,0,1.39.32,1.39,1.44,0,6.21,0,12.41-.01,18.62,0,.49.15.83.48,1.18,4.33,4.5,8.65,9.01,12.98,13.52.11.11.2.24.39.47h-.76Z"/><path class="cls-1" d="M86.65,46.2c-4.32-4.51-8.64-9.02-12.98-13.52-.33-.35-.49-.69-.48-1.18.02-6.21.01-12.41.01-18.62,0-1.13-.3-1.44-1.39-1.44-2.86,0-5.72,0-8.58,0-.87,0-1.23.36-1.24,1.22-.01.92-.02,1.84,0,2.76.02.93-.23,1.7-1.15,2.11-.81.36-1.56.14-2.34-.68-3.62-3.77-7.23-7.54-10.85-11.31-1.11-1.16-2.22-2.32-3.38-3.52C30.01,16.89,15.79,31.72,1.45,46.67h6.7c2.29,0,3.53,1.23,3.53,3.5,0,12.43,0,24.87,0,37.3v.78h65.18v-.78c0-12.48,0-24.95,0-37.43,0-2.08,1.28-3.37,3.35-3.38,2.02,0,4.04,0,6.06,0h.76c-.19-.23-.29-.36-.39-.47ZM72.78,54.62c-.43.42-.99.72-1.49,1.06-1.57,1.07-3.12,2.16-4.71,3.19-1.13.73-2.32,1.37-3.47,2.06-.15.09-.35.28-.35.42.02,2.15-.96,3.52-3.07,4.04.56,3.15-1.57,5.15-4.09,4.79-.03,1.34-.43,2.53-1.57,3.33-1.15.8-2.36.79-3.63.13-.12,1.03-.51,1.88-1.26,2.54-1.09.96-2.39,1.08-3.6.29-.61-.4-1.2-.84-1.84-1.29-.88.95-1.94,1.44-3.24,1.13-1.29-.31-2.06-1.18-2.46-2.49-1.03.71-2.11,1-3.29.52-1.16-.47-1.78-1.38-2.05-2.61-2.18.62-4.39-.45-4.56-3.44-3.23-.11-4.38-3.65-2.4-5.83-1.06-.74-2.08-1.51-3.16-2.19-2.21-1.39-4.45-2.73-6.68-4.09-.43-.27-.57-.66-.29-1.1.29-.45.7-.44,1.12-.18,1.95,1.2,3.89,2.4,5.83,3.6,1.03.64,1.31.58,1.96-.47,2.59-4.18,5.17-8.36,7.76-12.55.5-.81.41-1.22-.39-1.71-1.42-.88-2.85-1.76-4.27-2.64-.59-.37-.73-.77-.45-1.2.26-.4.69-.45,1.23-.11,1.51.93,3.02,1.87,4.53,2.8.1.06.24.12.29.22.42.77,1.12.64,1.81.6,2.78-.16,5.55-.25,8.31.2.15.02.33,0,.47-.06,2.91-1.16,5.92-1.26,8.98-.94.41.04.6-.06.8-.43.2-.36.52-.68.86-.92,1.37-.96,2.76-1.89,4.14-2.83.56-.38,1.01-.35,1.28.07.27.42.12.82-.44,1.21-1.35.92-2.7,1.83-4.05,2.76-.75.52-.83.94-.32,1.69,2.97,4.37,5.94,8.75,8.91,13.11.52.76.96.84,1.74.31,1.96-1.33,3.92-2.66,5.88-3.99.2-.14.43-.35.63-.33.29.02.73.17.79.36.09.28-.01.75-.21.95Z"/><path class="cls-2" d="M72.99,53.67c-.06-.19-.51-.34-.79-.36-.2-.02-.43.2-.63.33-1.96,1.33-3.92,2.66-5.88,3.99-.78.53-1.22.46-1.74-.31-2.97-4.37-5.95-8.74-8.91-13.11-.51-.75-.43-1.18.32-1.69,1.34-.93,2.7-1.84,4.05-2.76.57-.39.71-.8.44-1.21-.27-.42-.72-.45-1.28-.07-1.39.94-2.78,1.87-4.14,2.83-.34.24-.67.56-.86.92-.2.37-.39.47-.8.43-3.06-.32-6.07-.22-8.98.94-.14.06-.32.08-.47.06-2.76-.46-5.53-.36-8.31-.2-.69.04-1.39.18-1.81-.6-.05-.1-.19-.15-.29-.22-1.51-.94-3.02-1.87-4.53-2.8-.55-.34-.97-.29-1.23.11-.28.43-.13.83.45,1.2,1.42.89,2.85,1.76,4.27,2.64.8.5.9.9.39,1.71-2.59,4.18-5.17,8.37-7.76,12.55-.65,1.04-.92,1.11-1.96.47-1.94-1.2-3.89-2.41-5.83-3.6-.42-.26-.84-.27-1.12.18-.28.44-.14.83.29,1.1,2.23,1.36,4.47,2.7,6.68,4.09,1.08.68,2.1,1.46,3.16,2.19-1.98,2.18-.82,5.72,2.4,5.83.16,2.99,2.38,4.06,4.56,3.44.28,1.22.89,2.14,2.05,2.61,1.18.48,2.26.19,3.29-.52.4,1.31,1.17,2.17,2.46,2.49,1.3.32,2.35-.17,3.24-1.13.64.45,1.23.89,1.84,1.29,1.22.79,2.52.68,3.6-.29.75-.66,1.14-1.51,1.26-2.54,1.28.67,2.49.68,3.63-.13,1.15-.8,1.54-1.99,1.57-3.33,2.52.36,4.65-1.64,4.09-4.79,2.1-.52,3.08-1.89,3.07-4.04,0-.14.2-.32.35-.42,1.15-.69,2.34-1.33,3.47-2.06,1.59-1.03,3.15-2.12,4.71-3.19.51-.34,1.06-.64,1.49-1.06.2-.2.3-.67.21-.95ZM28.87,66.4c-.47.41-1.08.44-1.66.14-.62-.33-.98-.92-1.12-1.72.26-.44.45-.94.8-1.3.85-.87,1.77-1.68,2.67-2.51.73-.67,1.61-.69,2.29-.07.68.62.84,1.77.2,2.43-1.01,1.06-2.08,2.06-3.18,3.03ZM32.59,69.88c-.71.68-1.65.69-2.31.07-.69-.65-.82-1.71-.23-2.44.32-.39.72-.72,1.08-1.08,1.22-1.2,2.45-2.4,3.67-3.6.54-.53,1.16-.67,1.85-.37.68.29,1.08.97,1.17,1.78-.22.4-.37.87-.68,1.18-1.49,1.51-3.01,2.99-4.54,4.45ZM37.13,72.48c-.73.72-1.71.75-2.41.08-.71-.68-.78-1.85-.1-2.54,1.56-1.56,3.14-3.09,4.73-4.62.5-.48,1.12-.57,1.76-.3.71.31,1.01.9,1.11,1.9-.15.27-.33.79-.68,1.14-1.44,1.47-2.94,2.89-4.41,4.33ZM44.29,72.52c-.71.73-1.46,1.42-2.24,2.07-.48.39-1.07.39-1.62.1-.66-.34-.97-.9-1.11-1.72.24-.43.43-.91.75-1.26.54-.6,1.17-1.14,1.77-1.68.75-.67,1.69-.67,2.35,0,.68.67.75,1.81.1,2.49ZM60.63,63.23c-.65.7-1.54.8-2.37.22-1.48-1.02-2.94-2.06-4.41-3.09-.12-.08-.23-.17-.35-.24-.39-.22-.77-.2-1.04.16-.28.38-.22.79.17,1.08.79.58,1.6,1.13,2.4,1.7.77.54,1.55,1.06,2.3,1.62.91.68,1.19,1.83.7,2.84-.56,1.17-1.75,1.49-2.79.74-1.45-1.05-2.89-2.13-4.34-3.19-.12-.09-.23-.17-.35-.25-.52-.36-.97-.34-1.23.07-.3.48-.11.84.31,1.15,1.17.86,2.34,1.71,3.5,2.58.8.6,1.05,1.42.83,2.39-.34,1.5-1.77,2.04-3.01,1.13-.92-.68-1.82-1.38-2.73-2.08-.5-.38-.94-.4-1.24-.03-.29.36-.19.81.28,1.22.29.25.61.49.88.76.72.71.86,1.79.36,2.58-.62.97-1.43,1.13-2.38.47-.41-.29-.82-.59-1.24-.89,2.5-2.28,1.22-5.57-1.37-6.14.33-1.31.24-2.56-.76-3.57-.98-1-2.17-1.22-3.54-.76-.26-1.24-.88-2.19-2.06-2.66-1.16-.46-2.24-.23-3.26.51-.08-.2-.15-.37-.22-.54-.88-2.13-3.46-2.71-5.15-1.14-.55.51-1.1,1.02-1.69,1.57-.65-.46-1.28-.9-1.87-1.31,2.78-4.49,5.55-8.96,8.31-13.43.27-.43.46-.91.71-1.35.07-.13.24-.3.37-.3,2.1-.05,4.2-.08,6.3-.11.03,0,.06.04.15.1-.66.38-1.28.74-1.91,1.1-1.61.92-3.23,1.83-4.84,2.75-2.06,1.17-2.75,3.58-1.59,5.51,1.15,1.92,3.55,2.45,5.56,1.25,2.81-1.67,5.63-3.31,8.43-4.98.3-.18.51-.19.81.02,3.63,2.53,7.28,5.04,10.91,7.57.75.52,1.48,1.08,2.2,1.66,1.01.8,1.12,2.37.24,3.33ZM62.03,59.06c-4.71-3.3-9.45-6.55-14.16-9.86-.67-.47-1.17-.49-1.87-.07-2.93,1.78-5.89,3.49-8.84,5.24-1.24.74-2.7.38-3.4-.83-.68-1.17-.26-2.58.99-3.3,2.44-1.4,4.89-2.78,7.33-4.18,3.17-1.82,6.58-2.3,10.16-1.94.7.07,1.11.28,1.52.9,2.96,4.45,5.98,8.86,8.99,13.27.16.23.35.44.53.66-.4.45-.74.47-1.25.11Z"/><path class="cls-1" d="M44.29,72.52c-.71.73-1.46,1.42-2.24,2.07-.48.39-1.07.39-1.62.1-.66-.34-.97-.9-1.11-1.72.24-.43.43-.91.75-1.26.54-.6,1.17-1.14,1.77-1.68.75-.67,1.69-.67,2.35,0,.68.67.75,1.81.1,2.49Z"/><path class="cls-1" d="M63.28,58.96c-.4.45-.74.47-1.25.11-4.71-3.3-9.45-6.55-14.16-9.86-.67-.47-1.17-.49-1.87-.07-2.93,1.78-5.89,3.49-8.84,5.24-1.24.74-2.7.38-3.4-.83-.68-1.17-.26-2.58.99-3.3,2.44-1.4,4.89-2.78,7.33-4.18,3.17-1.82,6.58-2.3,10.16-1.94.7.07,1.11.28,1.52.9,2.96,4.45,5.98,8.86,8.99,13.27.16.23.35.44.53.66Z"/><path class="cls-1" d="M32.05,63.37c-1.01,1.06-2.08,2.06-3.18,3.03-.47.41-1.08.44-1.66.14-.62-.33-.98-.92-1.12-1.72.26-.44.45-.94.8-1.3.85-.87,1.77-1.68,2.67-2.51.73-.67,1.61-.69,2.29-.07.68.62.84,1.77.2,2.43Z"/><path class="cls-1" d="M37.82,64.24c-.22.4-.37.87-.68,1.18-1.49,1.51-3.01,2.99-4.54,4.45-.71.68-1.65.69-2.31.07-.69-.65-.82-1.71-.23-2.44.32-.39.72-.72,1.08-1.08,1.22-1.2,2.45-2.4,3.67-3.6.54-.53,1.16-.67,1.85-.37.68.29,1.08.97,1.17,1.78Z"/><path class="cls-1" d="M42.22,67.02c-.15.27-.33.79-.68,1.14-1.44,1.47-2.94,2.89-4.41,4.33-.73.72-1.71.75-2.41.08-.71-.68-.78-1.85-.1-2.54,1.56-1.56,3.14-3.09,4.73-4.62.5-.48,1.12-.57,1.76-.3.71.31,1.01.9,1.11,1.9Z"/><path class="cls-1" d="M60.63,63.23c-.65.7-1.54.8-2.37.22-1.48-1.02-2.94-2.06-4.41-3.09-.12-.08-.23-.17-.35-.24-.39-.22-.77-.2-1.04.16-.28.38-.22.79.17,1.08.79.58,1.6,1.13,2.4,1.7.77.54,1.55,1.06,2.3,1.62.91.68,1.19,1.83.7,2.84-.56,1.17-1.75,1.49-2.79.74-1.45-1.05-2.89-2.13-4.34-3.19-.12-.09-.23-.17-.35-.25-.52-.36-.97-.34-1.23.07-.3.48-.11.84.31,1.15,1.17.86,2.34,1.71,3.5,2.58.8.6,1.05,1.42.83,2.39-.34,1.5-1.77,2.04-3.01,1.13-.92-.68-1.82-1.38-2.73-2.08-.5-.38-.94-.4-1.24-.03-.29.36-.19.81.28,1.22.29.25.61.49.88.76.72.71.86,1.79.36,2.58-.62.97-1.43,1.13-2.38.47-.41-.29-.82-.59-1.24-.89,2.5-2.28,1.22-5.57-1.37-6.14.33-1.31.24-2.56-.76-3.57-.98-1-2.17-1.22-3.54-.76-.26-1.24-.88-2.19-2.06-2.66-1.16-.46-2.24-.23-3.26.51-.08-.2-.15-.37-.22-.54-.88-2.13-3.46-2.71-5.15-1.14-.55.51-1.1,1.02-1.69,1.57-.65-.46-1.28-.9-1.87-1.31,2.78-4.49,5.55-8.96,8.31-13.43.27-.43.46-.91.71-1.35.07-.13.24-.3.37-.3,2.1-.05,4.2-.08,6.3-.11.03,0,.06.04.15.1-.66.38-1.28.74-1.91,1.1-1.61.92-3.23,1.83-4.84,2.75-2.06,1.17-2.75,3.58-1.59,5.51,1.15,1.92,3.55,2.45,5.56,1.25,2.81-1.67,5.63-3.31,8.43-4.98.3-.18.51-.19.81.02,3.63,2.53,7.28,5.04,10.91,7.57.75.52,1.48,1.08,2.2,1.66,1.01.8,1.12,2.37.24,3.33Z"/></g></g></svg>