<?xml version="1.0" encoding="UTF-8"?><svg id="Calque_2" xmlns="http://www.w3.org/2000/svg" viewBox="0 0 103.02 84.23"><defs><style>.cls-1{fill:#cc1517;stroke-width:0px;}</style></defs><g id="Calque_1-2"><path class="cls-1" d="M50.66,0c2.38.9,4.74,1.85,7.13,2.71,9.82,3.52,19.64,7.02,29.46,10.53,2.33.83,2.56,1.17,2.56,3.62,0,1.66,0,3.33,0,5.2-.61-.18-1.1-.31-1.58-.48-12.19-4.35-24.39-8.69-36.57-13.08-1.31-.47-2.47-.45-3.77.02-12.22,4.4-24.46,8.76-36.7,13.12-.41.15-.83.26-1.37.43,0-2.32-.05-4.47.02-6.62.04-1.16.92-1.63,1.92-1.98,9.53-3.39,19.06-6.79,28.58-10.21,2.91-1.04,5.79-2.16,8.69-3.24.54,0,1.08,0,1.62,0Z"/><path class="cls-1" d="M103.02,79.22c-.57.82-1.35,1.15-2.33,1.01-1.41-.21-2.59.26-3.71,1.11-1.16.89-2.43,1.64-3.72,2.5-1.52-3.53-1.53-6.92,0-10.44,1.32.88,2.61,1.66,3.8,2.56,1.1.83,2.26,1.25,3.63,1.05.98-.14,1.76.19,2.33,1.01v1.21Z"/><path class="cls-1" d="M47.79,12.11v6.18c-.12.07-.19.13-.26.14-3.24.22-3.36.35-3.36,3.67,0,1.18,0,2.36,0,3.59-7.47.73-11.17,4.81-11.1,12.42-.61,0-1.17-.04-1.72,0-1.18.11-1.91.92-1.89,2.01.03,1.08.8,1.86,1.99,1.88,2.62.03,5.23.01,7.85.01.44,0,.89,0,1.29,0,1.84,4.85,4.76,7.3,8.86,7.33,5.01.03,8.03-2.66,9.55-7.33,3.03,0,6.05.02,9.07,0,1.15,0,1.96-.69,2.04-1.71.08-.96-.35-1.67-1.26-2.02-.3-.12-.63-.15-.95-.17-.41-.03-.81,0-1.34,0,0-7.37-3.5-11.65-11.12-12.38,0-1.38,0-2.8,0-4.21,0-2.45-.5-2.97-2.9-3.02-.2,0-.4-.03-.69-.04v-6.34c1.67.59,3.31,1.15,4.95,1.73,7.72,2.76,15.44,5.54,23.17,8.27.91.32,1.25.71,1.25,1.72-.04,12.02-.03,24.03-.03,36.05v1.37H18.48c-.02-.32-.06-.67-.06-1.03,0-12.18,0-24.36,0-36.54,0-.62-.05-1.11.77-1.4,9.35-3.29,18.68-6.64,28.02-9.97.15-.05.31-.08.58-.16ZM28.76,57.85c.65-.04,1.18-.03,1.7-.12,1.09-.17,1.68-.9,1.65-1.95-.03-1.05-.64-1.78-1.75-1.85-.97-.07-1.96-.08-2.93.02-1.02.1-1.59.78-1.64,1.81-.04.98.45,1.65,1.38,1.91.54.15,1.13.13,1.58.18ZM38.8,53.93s0,0,0-.01c-.49,0-.98-.05-1.47.01-1.08.14-1.7.78-1.72,1.87-.03,1.03.51,1.78,1.53,1.9,1.08.13,2.2.12,3.28,0,1.03-.13,1.54-.93,1.5-1.93-.04-.99-.62-1.68-1.66-1.81-.48-.06-.98-.01-1.46-.01Z"/><path class="cls-1" d="M15.34,84.2v-11.18h74.56c-1.33,3.72-1.34,7.43.01,11.18H15.34Z"/><path class="cls-1" d="M13.54,61.27h72.51c0,1.87.07,3.73-.03,5.59-.05.88-.69,1.47-1.61,1.59-.48.06-.98.07-1.47.07-22.11,0-44.21,0-66.32,0-.53,0-1.17.11-1.56-.13-.6-.37-1.39-.98-1.45-1.55-.19-1.81-.07-3.65-.07-5.57Z"/><path class="cls-1" d="M62.43,38.05h-25.15c-1.19-3.93,1.85-8.13,6.14-8.26,4.24-.13,8.49-.13,12.73,0,4.22.12,6.94,3.74,6.28,8.27Z"/><path class="cls-1" d="M12.03,72.99v11.18c-2.77,0-5.52.17-8.23-.05-2.25-.19-3.77-2.21-3.79-4.5,0-1.07-.03-2.16.19-3.19.41-1.94,2.13-3.36,4.1-3.42,2.54-.07,5.09-.02,7.74-.02Z"/><path class="cls-1" d="M44.95,42.04h9.61c-.25,1.67-2.16,3.2-4.2,3.38-2.49.21-4.71-1.13-5.41-3.38Z"/><path class="cls-1" d="M48.16,25.72v-3.26h3.28v3.26h-3.28Z"/></g></svg>