<?xml version="1.0" encoding="UTF-8"?><svg id="Calque_2" xmlns="http://www.w3.org/2000/svg" viewBox="0 0 108.4 86.18"><defs><style>.cls-1{fill:#cc1517;stroke-width:0px;}</style></defs><g id="Calque_1-2"><path class="cls-1" d="M108.4,27.1c-1.23.42-2.46.81-3.66,1.29-.24.1-.42.51-.51.82-.41,1.34-.82,2.69-1.13,4.06-.09.4-.03.96.19,1.3.63.97,1.37,1.87,2.2,2.96-1.12,1.35-2.22,2.72-3.38,4.03-.16.18-.64.26-.88.16-1.11-.44-2.21-1.38-3.28-1.34-1.05.05-2,1.27-3.1,1.61-1.79.55-2.28,1.7-2.37,3.4-.11,1.95-.2,1.98-2.13,2.21-1.29.16-2.59.22-3.9.33-.46-1.2-.83-2.3-1.31-3.35-.17-.37-.59-.74-.98-.87-1.36-.46-2.75-.84-4.15-1.2-.32-.08-.77-.05-1.03.13-.85.56-1.62,1.26-2.47,1.81-.26.17-.82.2-1.06.03-1.2-.86-2.33-1.82-3.5-2.72-.49-.38-.53-.77-.21-1.26,1.33-1.99,1.62-3.94-.21-5.81-.12-.12-.21-.3-.24-.47-.34-1.82-1.67-2.08-3.23-2.26-2.35-.28-1.79.23-2.28-2.16-.01-.07-.03-.14-.04-.21-.61-3.56-.62-3.59,2.71-4.77.84-.3,1.18-.72,1.33-1.6.21-1.2.62-2.38,1.06-3.53.22-.57.19-.96-.2-1.42-.52-.62-.94-1.34-1.5-1.91-.63-.65-.56-1.18-.03-1.82.84-1,1.66-2.01,2.46-3.03.39-.49.78-.59,1.36-.28.84.44,1.71.85,2.6,1.17.32.12.8.06,1.12-.1,1.28-.66,2.54-1.36,3.77-2.1.3-.18.62-.54.69-.88.21-.96.23-1.96.46-2.92.08-.34.49-.8.8-.85,1.49-.24,3-.39,4.51-.49.26-.02.69.3.81.57.47,1.06.58,2.46,1.34,3.16.75.69,2.23.51,3.22,1.03,1.7.9,2.93.51,4.27-.72,1.36-1.25,1.45-1.15,2.96-.04.06.04.12.08.17.13.9.79,2.27,1.44,2.55,2.41.25.86-.65,2.1-1.13,3.14-.29.61-.27,1.03.12,1.62.73,1.11,1.27,2.35,1.96,3.49.22.36.64.71,1.04.81.81.21,1.67.29,2.51.33.82.04,1.17.41,1.26,1.21.08.73.27,1.45.42,2.17v2.75ZM86.99,40.09c7.57-.03,13.62-6.11,13.61-13.67-.01-7.54-6.14-13.68-13.64-13.67-7.56,0-13.73,6.21-13.69,13.75.04,7.53,6.19,13.62,13.72,13.59Z"/><path class="cls-1" d="M46.54,86.18c-10.09,0-20.18,0-30.28,0-2.68,0-3.95-1.27-3.95-3.96,0-14.47,0-28.94-.02-43.4,0-.78.25-1.18.91-1.56,10.82-6.22,21.63-12.45,32.42-18.72.79-.46,1.32-.41,2.08.03,4.56,2.68,9.14,5.31,13.74,7.93.69.4,1.02.82,1.11,1.69.2,1.88.62,3.75,1.02,5.61.06.29.48.63.8.73.64.18,1.32.29,1.98.29,1.43-.01,2.32.6,2.87,1.94.26.62.48,1.11.08,1.74-.28.44-.45.96-.67,1.44-.88,1.95-.98,2.05.68,3.47,2,1.71,4.18,3.21,6.27,4.81.45.34.79.26,1.2-.08.84-.69,1.71-1.37,2.62-1.97.29-.19.78-.23,1.12-.13.2.06.38.54.38.83.02,12,.02,24,0,35.99,0,2.07-1.45,3.34-3.67,3.35-10.23,0-20.47,0-30.7,0ZM55.25,61.11c-.67.63-1.29,1.22-1.96,1.85-5.3-5.31-10.53-10.55-15.77-15.77-.56-.56-.87-1.13-.86-1.93,0-.38-.1-.93-.36-1.11-2.44-1.72-4.92-3.38-7.31-5.01-.71.71-1.34,1.35-2.02,2.03,1.55,2.27,3.15,4.58,4.71,6.93.37.56.77.89,1.45.79.81-.12,1.36.27,1.92.83,4.97,5,9.96,9.98,14.95,14.97.26.26.51.54.88.93-.71.6-1.36,1.15-1.99,1.69,2.97,3,5.78,5.97,8.73,8.78,1.68,1.59,4.42,1.33,6.04-.32,1.66-1.7,1.81-4.4.15-6.13-2.76-2.87-5.64-5.63-8.55-8.52ZM51.3,56.42c1.51-1.51,3.09-3.06,4.63-4.66.5-.52.94-.65,1.65-.49,2.45.55,4.6-.14,6.45-1.79,2.4-2.15,2.96-6.03,1.71-8.08-1.38,1.39-2.74,2.77-4.12,4.11-.25.24-.64.49-.95.47-2.3-.18-2.85-.65-3.43-2.82-.02-.07-.02-.14-.05-.2-.34-.68-.07-1.15.45-1.64,1.37-1.3,2.69-2.66,4.14-4.1-.35-.14-.53-.22-.72-.28-5.31-1.57-10.46,3.21-9.26,8.63.14.64.02,1.04-.43,1.48-1.61,1.57-3.19,3.17-4.73,4.71,1.58,1.58,3.09,3.08,4.67,4.66ZM39.6,58.83c-.13.12-.34.3-.54.49-3.61,3.61-7.23,7.22-10.84,10.84-1.49,1.49-1.46,3.1.04,4.61,1.48,1.47,3.17,1.5,4.62.05,3.64-3.63,7.28-7.27,10.91-10.91.17-.17.32-.35.44-.49-1.57-1.55-3.09-3.06-4.63-4.59Z"/><path class="cls-1" d="M67.28,11.73c-.71,1.14-1.36,2.23-2.06,3.28-.33.5-.28.86.09,1.31.65.79,1.3,1.59,1.84,2.45.22.35.26.88.23,1.32-.1,1.66-1.14,2.33-2.64,2.89-1.49.55-2.6.51-3.98-.32-4.34-2.63-8.78-5.09-13.15-7.66-.7-.41-1.18-.44-1.9-.03-11.86,6.88-23.74,13.72-35.6,20.59-1.7.98-3.44,1.45-5.36.96-2.51-.64-4.41-2.72-4.7-5.29-.31-2.7.7-4.87,3.05-6.28,3.35-2.01,6.76-3.93,10.15-5.89C24.08,12.81,34.92,6.57,45.74.29c.67-.39,1.13-.39,1.8,0,6.36,3.71,12.75,7.38,19.12,11.06.18.11.36.22.61.37Z"/><path class="cls-1" d="M86.95,15.82c5.87,0,10.64,4.75,10.64,10.61,0,5.85-4.79,10.64-10.63,10.63-5.88,0-10.61-4.74-10.62-10.62,0-5.88,4.73-10.61,10.62-10.61Z"/></g></svg>