<?xml version="1.0" encoding="UTF-8"?><svg id="Calque_2" xmlns="http://www.w3.org/2000/svg" viewBox="0 0 82.43 98.31"><defs><style>.cls-1{fill:#cc1517;stroke-width:0px;}</style></defs><g id="Calque_1-2"><path class="cls-1" d="M45.4,79.49h-1.28c-11.55,0-23.1,0-34.65,0-2.69,0-3.52-.81-3.52-3.46,0-18.91,0-37.82,0-56.73,0-2.68.79-3.46,3.5-3.46,1.88,0,3.75,0,5.63,0,.07,0,.14.02.27.05.05.13.14.29.18.46.49,2.04,1.85,3.17,3.93,3.17,9.06.01,18.12.01,27.18,0,2.24,0,3.45-1.08,4.16-3.67,2.32,0,4.67-.06,7.01.02,1.53.05,2.4,1.19,2.4,2.9,0,9.09,0,18.19,0,27.28,0,1.8-.07,3.61.02,5.41.06,1.11-.23,1.56-1.4,1.87-6.45,1.7-11.21,5.51-13.8,11.73-1.82,4.35-1.75,8.78-.1,13.19.14.36.28.72.47,1.23ZM46.45,38.18c.52,0,.94.09,1.29-.02.57-.18,1.29-.36,1.59-.79.46-.65-.04-1.27-.6-1.75-1.31-1.13-2.57-2.32-3.92-3.41-.66-.54-.89-1.12-.85-1.94.06-1.19.1-2.39-.03-3.57-.06-.5-.53-1.34-.88-1.37-1.87-.17-3.78-.45-5.74.28-.92-.8-1.92-1.68-2.92-2.55-1.12-.97-1.49-.98-2.59-.03-2.45,2.13-4.89,4.27-7.33,6.41-2.39,2.09-4.8,4.16-7.14,6.3-.37.34-.64,1.11-.53,1.57.1.38.81.68,1.31.84.45.14.98.03,1.58.03,0,.51,0,.9,0,1.28,0,3.86,0,7.72,0,11.58,0,1.49.36,1.85,1.85,1.85,7.68,0,15.37,0,23.05,0,1.48,0,1.84-.36,1.84-1.86,0-3.82,0-7.65,0-11.47,0-.42,0-.85,0-1.38ZM27.52,59.83c4.51,0,9.02,0,13.53,0,.58,0,1.16.01,1.73-.01.76-.04,1.23-.46,1.26-1.21.04-.81-.44-1.26-1.23-1.36-.25-.03-.5-.01-.76-.01-9.7,0-19.41,0-29.11,0-.32,0-.75-.11-.95.05-.43.35-1.03.86-1.02,1.29,0,.42.64.89,1.09,1.21.21.16.63.04.95.04,4.83,0,9.67,0,14.5,0ZM25.73,65.05c4.18,0,8.37,0,12.55,0,.32,0,.65,0,.97,0,.82-.02,1.31-.44,1.33-1.26.02-.82-.5-1.23-1.28-1.32-.21-.02-.43-.01-.65-.01-8.59,0-17.17,0-25.76,0-.32,0-.76-.09-.95.08-.42.37-1,.89-.97,1.32.02.42.68.85,1.14,1.16.23.15.63.04.96.04,4.22,0,8.44,0,12.66,0ZM25.34,70.28c4.18,0,8.37,0,12.55,0,1.16,0,1.75-.46,1.74-1.3-.01-.83-.61-1.27-1.77-1.29-.11,0-.22,0-.32,0-8.19,0-16.38,0-24.57,0-.39,0-.85-.05-1.16.13-.36.21-.78.61-.84.99-.06.37.19.95.49,1.18.32.25.87.28,1.32.28,4.18.02,8.37.01,12.55.01ZM24.6,72.93c-4.04,0-8.07,0-12.11,0-.87,0-1.5.32-1.59,1.25-.08.79.57,1.3,1.6,1.35.11,0,.22,0,.32,0,7.82,0,15.64,0,23.46,0,.36,0,.73,0,1.07-.1.8-.23,1.23-1.2.7-1.79-.35-.39-1.03-.66-1.56-.67-3.96-.05-7.93-.03-11.89-.03Z"/><path class="cls-1" d="M49.48,85.16c-.53,0-.84,0-1.15,0-13.14,0-26.28,0-39.42,0-4.15,0-7.45-2.27-8.53-5.88-.24-.82-.36-1.7-.36-2.55C0,57.34,0,37.96,0,18.58c0-4.58,3.48-8.22,8.04-8.38,2.41-.08,4.82-.02,7.32-.02v3.05c-2.19,0-4.39-.09-6.57.04-1.07.07-2.21.39-3.15.9-1.36.74-2.1,2.05-2.24,3.63-.05.5-.05,1.01-.05,1.51,0,18.87.06,37.75-.05,56.62-.02,4.48,2.99,6.22,6.2,6.19,12.13-.1,24.26-.03,36.38-.06.76,0,1.26.18,1.7.83.5.74,1.15,1.38,1.89,2.25Z"/><path class="cls-1" d="M33.03,16.93c-4.33,0-8.66,0-13,0-1.67,0-1.99-.31-1.99-1.93,0-2.31,0-4.62,0-6.93,0-1.29.4-1.69,1.68-1.7,2.02-.02,4.04,0,6.06,0,1.47,0,1.77-.29,1.91-1.73C27.95,2.1,30.11.11,32.74,0c2.83-.12,5.17,1.62,5.63,4.18.04.25.09.5.11.75.05,1.05.65,1.44,1.64,1.43,2.06-.02,4.12-.01,6.17,0,1.44,0,1.8.37,1.8,1.78,0,2.35,0,4.69,0,7.04,0,1.36-.37,1.73-1.73,1.73-4.44,0-8.88,0-13.32,0Z"/><path class="cls-1" d="M65.58,55.2c4.44.08,9.27,2.05,13.01,6.38,5.29,6.13,5.08,14.95-.44,20.89-7.07,7.61-19.65,7.88-27.03.56-7.29-7.22-6.15-18.64,2.44-24.55,3.15-2.17,6.82-3.28,12.02-3.29ZM64.34,86.23l.06.27c1.95-.45,3.99-.69,5.85-1.39,10-3.72,12.86-15.6,5.63-23.07-6.42-6.63-17.76-6.28-23.72.76-2.82,3.33-3.95,7.2-3.09,11.5,1.39,6.99,7.76,11.91,15.27,11.92Z"/><path class="cls-1" d="M50.74,13.24v-3.2c3.04.13,6.06-.02,8.97.46,3.72.61,6.36,3.88,6.38,7.57.06,11.36.03,22.73.03,34.09,0,.11-.03.21-.06.4h-3.25c0-.37,0-.78,0-1.19,0-10.79,0-21.57,0-32.36,0-3.69-2.07-5.75-5.76-5.76-2.08,0-4.17,0-6.3,0Z"/><path class="cls-1" d="M59.2,98.31c-1.13-.94-2.15-1.69-3.04-2.58-1.03-1.02-2.18-1.37-3.61-1.22-1.23.13-2.49.03-3.85.03,1-2.5,1.98-4.96,3.02-7.57,3.18,2.11,6.58,3.47,10.47,3.87-.99,2.49-1.96,4.9-2.98,7.47Z"/><path class="cls-1" d="M66.64,91.03c1.94-.53,3.75-.88,5.46-1.52,1.67-.63,3.24-1.54,4.99-2.39.96,2.4,1.96,4.87,2.97,7.4-1.57,0-3.02.06-4.47-.02-1.01-.05-1.8.19-2.55.88-1.08.99-2.24,1.89-3.48,2.93-1.01-2.53-1.97-4.92-2.91-7.27Z"/><path class="cls-1" d="M33.07,25.37c1.39,1.21,2.75,2.39,4.1,3.58.55.49,1.15,1.12,1.88.67.49-.3.73-1.01,1.09-1.54-.06-.07-.13-.14-.19-.21h1.44c0,1.13.04,2.31-.01,3.48-.05.91.24,1.59.97,2.15.8.62,1.52,1.32,2.06,1.79-.21.98-.51,1.77-.52,2.56-.05,3.72-.02,7.44-.02,11.15v1.23h-6.14c0-1.63,0-3.25,0-4.86,0-.83,0-1.66,0-2.49-.02-1.29-.4-1.7-1.67-1.7-1.95-.01-3.9-.01-5.85,0-1.36,0-1.77.43-1.78,1.84,0,2.02,0,4.04,0,6.06,0,.36,0,.71,0,1.14h-6.11v-1.14c0-3.86.02-7.72-.02-11.59,0-.64-.32-1.29-.56-2.14-.12.14-.04.02.07-.08,3.74-3.28,7.48-6.57,11.28-9.9Z"/><path class="cls-1" d="M35.04,50.23h-3.97v-6.37h3.97v6.37Z"/><path class="cls-1" d="M64.31,59.72c3.56.23,6.7,1.33,9.3,3.76,4.95,4.62,4.94,11.96,0,16.6-4.75,4.46-12.64,4.78-17.7.66-3.45-2.82-5.11-6.45-4.29-10.9.84-4.59,3.78-7.53,8.07-9.09,1.47-.53,3.08-.69,4.62-1.02ZM74.22,70.19c-.13-1.09-.65-1.47-1.49-1.5-1.48-.06-2.95-.17-4.43-.18-.65,0-.95-.25-1.16-.83-.45-1.22-.9-2.44-1.49-3.59-.24-.46-.85-1.01-1.29-1.01-.44,0-1.05.55-1.29,1.02-.6,1.18-1,2.47-1.57,3.67-.15.32-.63.66-.98.69-1.47.14-2.96.09-4.42.26-.52.06-1.18.43-1.44.86-.38.63.05,1.22.63,1.64,1.08.78,2.13,1.61,3.23,2.36.56.38.74.74.5,1.42-.43,1.18-.82,2.39-1.06,3.62-.1.51.05,1.33.4,1.6.34.27,1.18.2,1.64-.03,1.28-.65,2.5-1.44,3.7-2.23.5-.33.86-.32,1.35,0,1.17.77,2.39,1.47,3.59,2.21.59.36,1.29.68,1.75.07.33-.43.46-1.19.35-1.75-.21-1.13-.59-2.23-.98-3.31-.27-.75-.18-1.23.53-1.69,1.09-.7,2.12-1.49,3.13-2.3.36-.29.59-.75.79-1.01Z"/><path class="cls-1" d="M61.43,76.28c1.04-2.27.85-3.98-1.49-5.03,1-.17,2.2-.04,2.93-.58.74-.55,1.02-1.74,1.63-2.89.46,2.56,1.7,3.94,4.12,3.29-.61.71-1.56,1.36-1.79,2.21-.23.87.25,1.93.46,3.16-1.92-1.92-3.82-2.1-5.86-.15Z"/></g></svg>