<?xml version="1.0" encoding="UTF-8"?><svg id="Calque_2" xmlns="http://www.w3.org/2000/svg" viewBox="0 0 118.26 118.22"><defs><style>.cls-1{fill:#cc1517;stroke-width:0px;}</style></defs><g id="Calque_1-2"><path class="cls-1" d="M74.16,76.19c-1.83,0-3.59,0-5.34,0-2.03,0-2.66-.66-2.67-2.72,0-7.26,0-14.53,0-21.79,0-.45,0-.91,0-1.5h-7.94v-3.98h7.94v-1.46c0-7.31,0-14.61,0-21.92,0-2.13.62-2.74,2.76-2.74,1.75,0,3.49,0,5.23,0,1.2-13.74,14.4-21.69,25.67-19.79,10.45,1.76,18.41,10.97,18.44,21.67.03,10.87-7.89,20.12-18.45,21.92-11,1.87-24.4-5.81-25.66-19.74h-3.91v47.99h3.99c.95-7.38,4.48-13.17,10.94-16.99,4.59-2.71,9.59-3.61,14.83-2.65,11.01,2,18.57,11.39,18.25,22.54-.3,10.4-8.52,19.42-18.64,21-10.54,1.65-23.88-5.45-25.44-19.83ZM92.21,68.17c-1.28,0-2.39,0-3.51,0-1.8.02-2.49.7-2.49,2.51,0,4.05,0,8.1,0,12.14v1.41h-1.93v3.89h23.87v-3.88c-.67-.03-1.24-.06-1.9-.09,0-.54,0-.99,0-1.44,0-6.68,0-13.35,0-20.03,0-1.81-.7-2.52-2.48-2.53-3-.01-6.01,0-9.01,0-1.86,0-2.53.7-2.53,2.59,0,1.75,0,3.5,0,5.42ZM109.57,20.58c-4.07-3.4-7.97-6.67-11.88-9.91-1.1-.91-1.92-.85-3.12.15-2.79,2.32-5.58,4.64-8.36,6.96-1.08.9-2.15,1.81-3.21,2.7,1.58,2.34,2.28,2.97,3.2,2.91,0,2.71,0,5.42,0,8.13,0,1.88.68,2.56,2.56,2.56,4.96,0,9.92,0,14.89,0,1.89,0,2.58-.69,2.58-2.55,0-2.74,0-5.49,0-7.99,1.77-.4,2.13-2.05,3.34-2.98Z"/><path class="cls-1" d="M56.12,118.22h-7.96v-25.93h-3.98v25.9H12.1v-25.87h-4.02v25.88H.03c0-.41,0-.84,0-1.28,0-8.72.09-17.45-.03-26.17-.08-5.58,3.36-12.2,12.17-13.05.35-.03.89.34,1.09.68,1.55,2.62,3.04,5.27,4.55,7.92,1.37,2.4,2.41,2.54,4.43.58.12-.12.25-.22.41-.37.85.63,1.12,1.38.92,2.44-1.15,6.1-2.22,12.22-3.37,18.33-.22,1.15.02,2.01.85,2.82,1.77,1.71,3.48,3.48,5.23,5.21,1.34,1.33,2.27,1.33,3.63-.02,1.75-1.73,3.47-3.49,5.23-5.22.79-.77,1.05-1.6.84-2.71-1.15-6.1-2.22-12.22-3.38-18.33-.2-1.08.03-1.86.9-2.54.27.25.54.51.81.77,1.49,1.44,2.76,1.26,3.81-.57,1.58-2.75,3.13-5.51,4.74-8.24.21-.35.72-.8,1.05-.77,6.18.57,10.47,4.07,11.9,9.74.16.64.29,1.32.29,1.98.02,9.56.01,19.11.01,28.81Z"/><path class="cls-1" d="M36.61,39.41c1.7,1.72,3.44,3.46,5.15,5.22.18.19.33.5.33.76-.05,3.71.16,7.46-.28,11.12-.8,6.65-6.92,11.66-13.74,11.66-6.81,0-12.93-5.02-13.72-11.67-.4-3.36-.07-6.81-.07-10.37,2.14,0,4.43.06,6.7-.02,1.99-.07,4.02-.1,5.96-.48,3.6-.7,6.53-2.66,8.88-5.47.19-.22.38-.44.57-.66.02-.03.07-.03.21-.09Z"/><path class="cls-1" d="M46.12,43.18c-2.85-2.81-5.57-5.52-8.31-8.2-1.38-1.35-2.7-1.16-3.66.52-2.55,4.46-6.41,6.63-11.52,6.62-3.26,0-6.51-.05-9.77.03-.91.02-1.82.41-2.62.61,0-3.25-.34-6.89.08-10.45.56-4.78,4.78-8.15,9.6-8.22,4.05-.05,8.1-.04,12.15,0,3.28.03,5.76,2.4,6.03,5.67.14,1.66.68,2.21,2.31,2.34,3.29.27,5.65,2.73,5.71,6,.03,1.66,0,3.32,0,5.08Z"/><path class="cls-1" d="M28.13,111.59c-1.29-1.33-2.38-2.42-3.41-3.56-.24-.26-.41-.75-.35-1.09.85-4.83,1.75-9.66,2.64-14.48.02-.12.09-.23.13-.32h1.97c.47,2.5.96,5.11,1.44,7.72.41,2.25.87,4.49,1.19,6.76.07.52-.15,1.21-.49,1.62-.92,1.12-1.96,2.14-3.11,3.36Z"/><path class="cls-1" d="M22.2,71.17c3.9,1.35,7.83,1.34,11.76.02.4,1.23.07,1.96-1.14,2.44-1.39.56-2.67,1.35-4.04,1.96-.38.17-.97.17-1.36,0-1.37-.6-2.65-1.4-4.04-1.96-1.19-.48-1.59-1.19-1.18-2.46Z"/><path class="cls-1" d="M39.1,76.91c-1.1,1.93-2.2,3.87-3.21,5.65-1.32-1.33-2.65-2.66-3.99-4.01,2.12-.72,4.09-3.18,7.2-1.64Z"/><path class="cls-1" d="M17.07,76.91c3.16-1.48,5.11.9,7.44,1.72-1.39,1.39-2.7,2.71-4.1,4.11-1.09-1.91-2.21-3.87-3.34-5.83Z"/><path class="cls-1" d="M9.99,54.08c-2.27.43-4-1.18-3.93-3.05.07-1.91,1.62-3.04,3.93-2.81v5.86Z"/><path class="cls-1" d="M46.19,54.1v-5.87c2.3-.24,3.86.9,3.93,2.8.07,1.95-1.44,3.17-3.93,3.07Z"/><path class="cls-1" d="M28.09,86.87c-.88-1.17-1.64-2.19-2.46-3.28.84-.78,1.67-1.55,2.45-2.28.72.72,1.5,1.5,2.39,2.38-.69.92-1.47,1.97-2.38,3.19Z"/><path class="cls-1" d="M102.17,64.25v5.89h-3.86v4.02h3.85v3.98h-3.86v4.02h3.83v1.96h-11.86v-11.95c1.21,0,2.36.01,3.52,0,1.7-.02,2.4-.74,2.42-2.46.01-1.79,0-3.58,0-5.46h5.95Z"/><path class="cls-1" d="M96.22,14.67c1.92,1.59,3.75,3.1,5.55,4.64.24.21.43.62.43.94.03,3.21.02,6.42.02,9.73h-12.02c0-2.22.18-4.48-.05-6.69-.27-2.63.47-4.53,2.76-5.93,1.16-.71,2.13-1.73,3.31-2.7Z"/></g></svg>