<?xml version="1.0" encoding="UTF-8"?><svg id="Calque_2" xmlns="http://www.w3.org/2000/svg" viewBox="0 0 153.04 90.27"><defs><style>.cls-1{fill:#cc1517;stroke-width:0px;}</style></defs><g id="Calque_1-2"><g id="YgtxQa"><path class="cls-1" d="M102.1,10.79c.31-.01.53-.03.75-.03,7.02,0,14.04,0,21.06-.01.55,0,.9.18,1.26.59,8.32,9.47,16.64,18.92,24.98,28.37.34.38.47.76.47,1.27-.01,7.69,0,15.38,0,23.07,0,.39,0,.78,0,1.24h2.42v5.84h-18.95c.11,6.83-2.49,12.25-8.1,16.1-3.62,2.48-7.69,3.4-12.03,2.91-9.4-1.06-16.48-9.28-15.99-18.85-.02-.02-.03-.04-.05-.05-.02-.02-.04-.04-.06-.05-.15-.02-.3-.04-.44-.04-9.67,0-19.35,0-29.1,0,.15,6.68-2.39,12.04-7.83,15.9-3.58,2.54-7.63,3.53-11.98,3.11-4.81-.47-8.82-2.57-11.96-6.24-3.12-3.64-4.52-7.91-4.33-12.76h-12.73v-5.84h2.36c.12-.82.05-1.59.06-2.34.01-.77,0-1.54,0-2.31,0-.77,0-1.54,0-2.31s0-1.54,0-2.31c0-.77,0-1.53,0-2.38.31-.02.57-.05.83-.05,9.92,0,19.84,0,29.77,0,13.52,0,27.04,0,40.56,0h.85c2.73-14.31,5.45-28.55,8.18-42.84ZM144,46.73c0-1.01-.02-1.97,0-2.93.02-.53-.13-.93-.48-1.34-7.09-8.2-14.17-16.4-21.23-24.62-.28-.33-.57-.47-1.01-.47-4.27.02-8.53,0-12.8.01-.24,0-.48.02-.72.03-1.96,9.8-3.91,19.53-5.86,29.31h42.1ZM126.19,72.19c.07-5.5-4.54-10.23-10.24-10.18-5.56.04-10.14,4.6-10.14,10.16,0,5.67,4.61,10.25,10.3,10.23,5.55-.03,10.1-4.63,10.08-10.2ZM40.07,72.2c0,5.66,4.57,10.2,10.24,10.2,5.55,0,10.12-4.58,10.15-10.16.03-5.63-4.57-10.22-10.22-10.22-5.62,0-10.17,4.56-10.17,10.18Z"/><path class="cls-1" d="M0,29.05c.12-.2.23-.4.35-.58,2.92-4.58,5.85-9.15,8.76-13.74.28-.45.6-.65,1.11-.71,3.13-.35,6.25-.72,9.38-1.09,2.78-.33,5.56-.66,8.34-.99,2.68-.32,5.37-.63,8.05-.94,3.18-.37,6.35-.75,9.53-1.12,2.78-.33,5.56-.65,8.35-.98,2.73-.32,5.46-.65,8.2-.98,3.1-.37,6.2-.73,9.31-1.09,3.2-.38,6.4-.75,9.6-1.13,1.43-.17,2.85-.34,4.34-.51.52-1.73,1.03-3.46,1.55-5.19h24.09c.05,2.11.01,4.2.02,6.4-4.16.03-8.26,0-12.45.02-3.01,14.7-6.01,29.38-9.03,44.14-.27,0-.51,0-.75,0-17.26,0-34.53,0-51.79,0-5.18,0-10.37,0-15.55,0-.52,0-.87-.16-1.22-.52C13.59,43.19,6.99,36.36.4,29.52c-.14-.14-.26-.3-.4-.47ZM74.88,44.22c.16-.92.12-25.36-.03-25.91h-4.5c-.16.92-.12,25.36.05,25.91h4.48ZM56.88,20.1v24.1h4.61c.15-1.02.11-23.56-.04-24.1h-4.56ZM48.12,44.21v-22.27c-1.55-.02-3.09-.07-4.62.03-.16,1.51-.09,21.71.08,22.24h4.54ZM30.06,44.26c1.61-.04,3.13.06,4.65-.06v-20.37h-4.65v20.44Z"/></g></g></svg>