<?xml version="1.0" encoding="UTF-8"?><svg id="Calque_2" xmlns="http://www.w3.org/2000/svg" viewBox="0 0 82.45 93.55"><defs><style>.cls-1{fill:#cc1517;stroke-width:0px;}</style></defs><g id="Calque_1-2"><path class="cls-1" d="M24.35,32.17h38.98c-.2,2.43-.18,4.88-.64,7.23-1.41,7.24-4.47,13.59-10.91,17.74-5.55,3.58-11.18,3.34-16.52-.43-6.15-4.34-9.19-10.62-10.42-17.87-.36-2.15-.33-4.37-.49-6.67Z"/><path class="cls-1" d="M61.06,93.53h-4.96c0-1.93,0-3.77,0-5.61,0-1.98.04-3.97-.02-5.95-.07-2.09-1.1-3.22-3.09-3.23-6.13-.05-12.26-.05-18.39,0-2.02.02-3.13,1.26-3.16,3.39-.05,3.12-.01,6.25-.01,9.38,0,.64,0,1.28,0,2h-4.56c-.04-.65-.09-1.17-.09-1.7,0-7.45.03-14.91-.03-22.36,0-1.23.34-1.79,1.53-2.17,3.45-1.09,6.58-2.7,8.25-6.4,4.84,2.24,9.67,2.37,14.63.05,1.79,3.78,5.2,5.31,8.83,6.57.44.15,1.02.77,1.03,1.17.06,8.22.05,16.45.05,24.87Z"/><path class="cls-1" d="M50.57,1.07c8.57,1.99,15.34,12.33,14.25,21.52H22.96c-1.87-8.03,6.21-20.28,14.33-21.45,0,2.9-.08,5.77.02,8.64.14,4.19,3.59,7.06,7.62,6.45,3.21-.49,5.55-3.23,5.63-6.72.06-2.75.01-5.51.01-8.43Z"/><path class="cls-1" d="M53.11,93.5h-18.67v-11.73h18.67v11.73Z"/><path class="cls-1" d="M14.71,70.41v23.05H5.09c.26-4.81.51-9.53.77-14.25.02-.3.05-.6.07-.9.34-4.79.95-5.56,5.59-7.04.97-.31,1.96-.54,3.18-.87Z"/><path class="cls-1" d="M73.19,70.47c1.25.35,2.29.61,3.31.94,4.23,1.41,4.93,2.26,5.18,6.62.29,5.09.51,10.18.77,15.43h-9.26v-22.99Z"/><path class="cls-1" d="M43.87,25.64c7.27,0,14.54,0,21.81,0,.54,0,1.21-.16,1.59.09.59.38,1.33,1.06,1.35,1.63.02.55-.72,1.23-1.28,1.67-.31.24-.93.13-1.4.13-14.72,0-29.44,0-44.16,0-.48,0-1.08.13-1.41-.11-.57-.41-1.38-1.11-1.32-1.6.07-.63.82-1.28,1.42-1.73.31-.23.93-.07,1.41-.07,7.33,0,14.66,0,21.99,0Z"/><path class="cls-1" d="M23.58,93.52h-5.64c-.05-.62-.12-1.14-.12-1.66,0-6.79.03-13.57-.03-20.35-.01-1.33.34-1.97,1.71-2.11,1.31-.14,2.59-.48,4.09-.77v24.9Z"/><path class="cls-1" d="M70.04,93.55h-5.81v-24.93c1.7.35,3.34.64,4.95,1.05.34.09.82.59.82.91.05,7.6.04,15.2.04,22.97Z"/><path class="cls-1" d="M47.56,0c0,3.56.09,6.85-.03,10.14-.07,1.91-1.8,3.28-3.68,3.23-1.81-.04-3.43-1.4-3.49-3.24-.11-3.29-.03-6.58-.03-10.14h7.23Z"/><path class="cls-1" d="M8.12,57.13c-1.61,0-3-1.18-3.31-2.81-.1-.53-.1-1.05-.1-1.55v-3.59c0-6.95-.01-14.14.01-21.21,0-.81-.18-1.16-.83-1.56-2.12-1.31-3.52-3.43-3.83-5.82-.32-2.45.53-4.94,2.33-6.83l1.29-1.36v1.87c0,.4,0,.77,0,1.11,0,.68,0,1.27,0,1.86.06,2.67,1.92,4.61,4.42,4.61h.05c2.49-.02,4.39-2.03,4.42-4.67,0-.58,0-1.15,0-1.76,0-.29,0-.58,0-.88v-1.44l1.18.82c2.1,1.47,3.03,4.79,2.18,7.74-.63,2.17-1.86,3.77-3.68,4.77-.56.31-.72.6-.72,1.33.02,6.82.02,13.76.02,20.46v4.51s0,.25,0,.25c0,.4,0,.81-.06,1.24-.27,1.64-1.66,2.86-3.3,2.9h-.07Z"/><path class="cls-1" d="M2.94,14.28c0,1.2-.02,2.09,0,2.99.07,3.08,2.32,5.36,5.22,5.34,2.91-.03,5.12-2.34,5.16-5.41.01-.86,0-1.71,0-2.65,1.84,1.29,2.64,4.32,1.89,6.92-.54,1.87-1.6,3.38-3.32,4.32-.86.47-1.11,1.05-1.11,1.99.03,8.32.02,16.65.01,24.97,0,.45.02.92-.05,1.36-.22,1.3-1.31,2.24-2.58,2.27-1.24.03-2.38-.9-2.63-2.2-.09-.48-.09-.99-.09-1.48,0-8.24-.02-16.48.01-24.72,0-1.01-.27-1.63-1.19-2.2C.23,23.28-.5,17.9,2.94,14.28Z"/></g></svg>