<?xml version="1.0" encoding="UTF-8"?><svg id="Calque_2" xmlns="http://www.w3.org/2000/svg" viewBox="0 0 85.18 86.65"><defs><style>.cls-1{fill:#cc1517;stroke-width:0px;}</style></defs><g id="Calque_1-2"><path class="cls-1" d="M26.99,0c.56.18,1.14.3,1.67.54,2.91,1.29,4.39,3.57,4.51,6.74.1,2.55-.19,2.84-2.71,2.84-.51,0-1.02.02-1.52,0-.97-.05-1.49-.57-1.55-1.54-.03-.45,0-.9-.02-1.35-.06-.88-.57-1.43-1.45-1.44-2.87-.03-5.75-.03-8.62,0-.86,0-1.4.59-1.46,1.45-.03.45,0,.9-.01,1.35-.04.92-.54,1.48-1.46,1.53-.96.04-1.92.04-2.87,0-.76-.04-1.32-.46-1.4-1.23-.29-3.08.44-5.8,3.16-7.61C14.13.69,15.19.41,16.16,0c3.61,0,7.22,0,10.83,0Z"/><path class="cls-1" d="M72.15,51.97v2.89c-1.08,0-2.13,0-3.19,0-.39,0-.79-.02-1.18.02-.87.09-1.41.72-1.36,1.53.04.78.59,1.31,1.46,1.33,1.16.03,2.31,0,3.47.01.25,0,.5.03.78.05v2.84c-.85,0-1.68-.01-2.51,0-1.12.02-1.8.59-1.78,1.49.02.86.67,1.39,1.76,1.4.84.01,1.68,0,2.53,0v2.9c-1.13,0-2.22,0-3.31,0-.37,0-.74-.01-1.1.03-.8.09-1.3.64-1.31,1.39,0,.75.47,1.37,1.27,1.43.95.08,1.92.04,2.87.05.5,0,1.01,0,1.56,0v2.89c-.81,0-1.64,0-2.48,0-1.14,0-1.81.55-1.8,1.44,0,.89.69,1.44,1.82,1.45.81,0,1.62,0,2.47,0v2.89c-1.07,0-2.13,0-3.19,0-.34,0-.68,0-1.02,0-.91.04-1.48.56-1.51,1.37-.03.84.56,1.48,1.48,1.5,1.38.03,2.76,0,4.23,0,0,1.09.07,2.15-.03,3.2-.06.68-.61,1.09-1.31,1.1-2.93.02-5.86.03-8.8,0-.85-.01-1.3-.56-1.35-1.43-.02-.31,0-.62,0-.93,0-17.57,0-35.14,0-52.7v-1.11c-.21-.09-.46-.11-.56-.25-.33-.42-.84-.88-.83-1.32,0-.44.45-1.04.86-1.28.44-.24.54-.46.53-.89-.01-2.37,0-4.74,0-7.11,0-.25.03-.49.04-.8.32-.01.6-.04.87-.04,2.85,0,5.7,0,8.54,0,1.66,0,2.08.43,2.08,2.12,0,2.14,0,4.28,0,6.57h4.57c1.47,0,1.46,0,1.69-1.41.23-1.45.47-2.89.71-4.34.18-1.05.66-1.46,1.72-1.47.87,0,1.75-.01,2.62,0,1.16.01,1.69.54,1.7,1.73.01,2.74,0,5.47,0,8.21,0,1.86,0,3.72,0,5.58,0,1.29-.51,1.78-1.8,1.79-.85,0-1.69.01-2.54,0-1.06-.01-1.53-.42-1.7-1.48-.31-1.86-.62-3.72-.93-5.64h-6v2.83c-1.53,0-2.96,0-4.38,0-.67,0-1.23.35-1.3.97-.06.49.13,1.11.43,1.5.22.28.8.37,1.23.38,1.29.05,2.59.02,3.94.02v2.89c-.83,0-1.64,0-2.45,0-1.15,0-1.82.52-1.83,1.41-.01.92.68,1.46,1.88,1.47.78,0,1.57,0,2.41,0v2.89c-1.43,0-2.83-.02-4.23,0-.89.02-1.46.6-1.47,1.41,0,.82.56,1.4,1.44,1.45.25.02.51,0,.76,0,1.15,0,2.3,0,3.51,0v2.88c-.87,0-1.7,0-2.54,0-1.06.01-1.73.57-1.74,1.44,0,.87.65,1.43,1.71,1.44.84,0,1.68,0,2.6,0Z"/><path class="cls-1" d="M7.19,38.98c0-.4,0-.68,0-.96,0-7.22,0-14.44,0-21.66,0-2.28,1.08-3.35,3.37-3.35,7.42,0,14.83,0,22.25,0,2.12,0,3.26,1.12,3.26,3.22,0,7.3,0,14.61,0,21.91,0,.25-.03.49-.05.83-.7,0-1.34,0-1.98,0-2.12,0-4.23-.01-6.35,0-1.09,0-1.72.55-1.73,1.44,0,.9.6,1.44,1.7,1.45,2.45.01,4.91,0,7.36,0,.3,0,.61,0,.89,0,.7,3.08-1.27,4.39-3.25,4.37-7.27-.08-14.55-.1-21.83,0-2.54.04-4.1-1.45-3.57-4.37.93,0,1.89,0,2.84,0,1.78,0,3.55,0,5.33,0,1.16,0,1.82-.53,1.83-1.42.02-.92-.67-1.47-1.87-1.47-2.43,0-4.85,0-7.28,0-.28,0-.56,0-.95,0ZM30.27,27.42c0-4.8-3.86-8.64-8.66-8.64-4.77,0-8.66,3.9-8.65,8.67,0,4.78,3.89,8.64,8.67,8.64,4.8,0,8.65-3.86,8.64-8.66Z"/><path class="cls-1" d="M17.27,49.09c.05,1.88.05,3.57-.56,5.28-3.61,10.24-7.14,20.52-10.69,30.78-.44,1.28-.74,1.49-2.09,1.49-.73,0-1.47,0-2.2,0-1.43-.02-2.04-.87-1.57-2.23,1.62-4.71,3.25-9.42,4.88-14.12,2.35-6.78,4.71-13.56,7.03-20.35.24-.69.55-.9,1.25-.87,1.29.05,2.58.02,3.95.02Z"/><path class="cls-1" d="M25.96,49.12h4.91c.81,2.35,1.63,4.71,2.45,7.08,3.22,9.31,6.45,18.61,9.67,27.92.62,1.8.1,2.53-1.83,2.53-.59,0-1.18,0-1.78,0-1.41,0-1.71-.21-2.16-1.51-1.66-4.79-3.31-9.57-4.97-14.36-1.93-5.58-3.82-11.19-5.82-16.74-.58-1.62-.38-3.21-.46-4.91Z"/><path class="cls-1" d="M57.67,37.55c-3.39,0-6.69.02-9.99,0-1,0-1.51-.62-1.52-1.74-.02-1.8,0-3.61,0-5.41,0-3.69,0-7.39,0-11.08,0-1.5.48-1.98,1.97-1.98,2.93,0,5.87,0,8.8,0,.52,0,.82.06.82.71-.02,6.32-.01,12.63-.02,18.95,0,.16-.03.33-.06.58ZM51.93,33.19c.81.01,1.46-.62,1.46-1.42,0-.78-.68-1.46-1.46-1.45-.75.01-1.39.65-1.41,1.4-.02.81.6,1.45,1.41,1.46ZM51.98,24.54c.79-.02,1.44-.7,1.41-1.49-.03-.75-.67-1.38-1.43-1.39-.79,0-1.45.66-1.44,1.45,0,.8.67,1.44,1.46,1.42Z"/><path class="cls-1" d="M18.72,49.11h5.72c.02.31.05.61.05.9,0,9.13,0,18.26,0,27.39,0,1.6-.4,2-1.98,2.01-.76,0-1.52.02-2.28,0-.92-.03-1.43-.56-1.5-1.48-.01-.17,0-.34,0-.51,0-9.13,0-18.26,0-27.39,0-.28,0-.55,0-.91Z"/><path class="cls-1" d="M27.38,27.42c0,3.2-2.53,5.76-5.72,5.78-3.22.02-5.83-2.58-5.82-5.78.01-3.16,2.62-5.75,5.79-5.75,3.19,0,5.75,2.56,5.75,5.76Z"/></g></svg>