<?xml version="1.0" encoding="UTF-8"?><svg id="Calque_2" xmlns="http://www.w3.org/2000/svg" viewBox="0 0 89.92 85.9"><defs><style>.cls-1{fill:#cc1517;stroke-width:0px;}</style></defs><g id="Calque_1-2"><path class="cls-1" d="M78.02,0h-21.62c-1.53,0-1.84.31-1.84,1.82v21.24h25.25V1.76c0-1.42-.36-1.76-1.8-1.76ZM88.49,25.04H28.35s.02.02.02.02c-3.32,0-6.42-.02-9.51.02-.65,0-.96-.23-1.25-.79-1.53-2.91-3.11-5.79-4.64-8.72-.4-.73-.9-1.11-1.78-1.09-3.2.02-6.38,0-9.57,0-1.05.02-1.59.44-1.61,1.19,0,.75.52,1.15,1.59,1.17,2.86,0,5.75,0,8.61-.02.56,0,.88.17,1.13.67,1.28,2.47,2.61,4.89,3.91,7.34.44.86.92,1.74,1.19,2.65,3.32,11.21,6.61,22.43,9.91,33.64.54,1.86,1.09,3.72,1.63,5.6-1.53.63-2.65,1.57-3.3,3.01-.23.48-.38,1-.46,1.51-.69,3.55,1.94,6.96,5.85,7.02,1.9.02,3.8,0,5.69,0,1.63,5.23,4.49,7.67,8.82,7.63,4.22-.04,7.11-2.61,8.57-7.57h10.6c1.28,4.77,4.2,7.42,8.3,7.57,4.43.15,7.25-2.24,9.05-7.63h4.18c.73,0,1.21-.36,1.25-1.11.04-.73-.4-1.13-1.09-1.23-.4-.06-.79-.06-1.17-.06-1.07-.02-2.13,0-3.18,0-1.63-5.21-4.37-7.59-8.61-7.63-4.31-.04-7.07,2.34-8.78,7.57h-10.6c-1.53-5.04-4.26-7.46-8.51-7.57-4.31-.08-7.04,2.22-8.88,7.57-2.03,0-4.08.06-6.13-.02-1.25-.06-2.17-.82-2.74-1.97-.36-.73-.44-1.51-.31-2.2.29-1.46,1.57-2.68,3.39-2.91,1.84-.25,3.7-.48,5.54-.73,7.48-1,14.97-2.01,22.47-3.01,7.96-1.07,15.95-2.13,23.92-3.18.9-.13,1.36-.52,1.55-1.46,1.25-6.63,2.55-13.23,3.85-19.84l2.63-13.73c.21-1.09-.27-1.67-1.38-1.71ZM86.21,33.62c-1.61,8.3-3.24,16.56-4.79,24.86-.17.84-.52,1.09-1.32,1.19-5.08.67-10.18,1.36-15.26,2.03-.13.02-.27.04-.4.04-8.22,1.11-16.41,2.19-24.63,3.28-3.14.42-6.27.84-9.51,1.28-3.8-12.94-7.59-25.84-11.41-38.84h68.48c-.4,2.09-.79,4.14-1.17,6.17ZM44.72,9.6c-.82-1.42-1.19-1.51-2.63-.67-1.05.61-2.09,1.21-3.14,1.8-4.1,2.38-8.22,4.77-12.33,7.15-1.28.75-1.38,1.15-.63,2.45.21.36.42.73.63,1.11.31.54.63,1.07.94,1.63h24.92c-2.57-4.52-5.16-8.97-7.76-13.46Z"/><path class="cls-1" d="M18.9,27.45c3.83,13,7.61,25.9,11.41,38.84,3.24-.44,6.38-.86,9.51-1.28,8.22-1.09,16.41-2.17,24.63-3.28.13,0,.27-.02.4-.04,5.08-.67,10.18-1.36,15.26-2.03.79-.1,1.15-.36,1.32-1.19,1.55-8.3,3.18-16.56,4.79-24.86.38-2.03.77-4.08,1.17-6.17H18.9ZM58.68,56.34c-.5.02-.67-.13-.67-.63.02-2.26,0-1.34,0-3.6v-.38c0-.23-.17-.4-.38-.42h-.25c-1.57-.02-3.14,0-4.7-.02-.46,0-.63.13-.63.61.02,2.34,0,1.44.02,3.78.02.5-.15.65-.65.65-1.71-.04-3.43-.02-5.16,0-.44,0-.63-.08-.63-.61.02-3.14,0-6.27.02-9.39.02-.27.17-.67.36-.86,2.78-2.8,5.56-5.58,8.36-8.36.54-.54.77-.54,1.32,0,2.8,2.82,5.6,5.64,8.4,8.49.17.17.31.52.31.77.02,3.11,0,6.25.02,9.37,0,.33-.06.5-.29.56-.1.02-.23.02-.4.02-1.69-.1-3.37-.06-5.06,0ZM67.86,46.39c-.38.36-.88.38-1.3-.02-.75-.73-1.48-1.48-2.22-2.22-2.61-2.63-5.21-5.25-7.82-7.86-.27-.29-.59-.61-.88-.9q-.61-.63-1.21-.02c-3.57,3.57-7.17,7.15-10.75,10.75-.13.13-.25.25-.38.33-.42.31-.86.29-1.19-.08-.36-.33-.36-.75-.08-1.15.1-.17.25-.29.4-.42,3.95-3.97,7.92-7.92,11.9-11.87.31-.31.52-.46.71-.46.21,0,.42.15.73.46,1.48,1.51,2.97,2.99,4.45,4.49.15.13.29.27.56.52,0-1,.02-1.82,0-2.65-.04-.52.13-.73.67-.67.59.04,1.17.02,1.78,0,.44-.02.59.1.59.56-.02,1.74,0,3.49-.02,5.23,0,.42.1.75.42,1.07,1.11,1.07,2.19,2.17,3.28,3.28.1.1.23.21.33.33.36.42.36.94.02,1.3Z"/></g></svg>