<?xml version="1.0" encoding="UTF-8"?><svg id="Calque_2" xmlns="http://www.w3.org/2000/svg" viewBox="0 0 86.53 86.55"><defs><style>.cls-1{fill:#cc1517;stroke-width:0px;}</style></defs><g id="Calque_1-2"><path class="cls-1" d="M52.16,28.75c0,8.8.03,17.59-.03,26.39,0,1.28.35,1.65,1.64,1.64,10.21-.05,20.43-.03,30.64-.03,1.82,0,2.11.28,2.11,2.06,0,4.49,0,8.97,0,13.46,0,1.81-.38,2.19-2.34,2.19-7.24.01-14.48,0-21.72,0-2.93,0-5.86.04-8.79-.02-1.13-.02-1.58.3-1.54,1.5.08,2.89.04,5.77.02,8.66,0,1.46-.45,1.91-1.91,1.92-4.57.02-9.15.01-13.72,0-1.77,0-2.15-.4-2.15-2.22,0-17.28,0-34.56,0-51.84q0-1.89-1.87-1.89c-10.08,0-20.16,0-30.24,0-1.96,0-2.26-.29-2.26-2.22C0,24.01,0,19.66,0,15.31c0-2.19.32-2.49,2.57-2.5,10.04,0,20.07-.03,30.11.03,1.35,0,1.76-.35,1.72-1.72-.1-3.02-.04-6.04-.03-9.06,0-1.63.42-2.05,2.05-2.06,4.57-.01,9.15-.01,13.72,0,1.6,0,2.01.44,2.01,2.09,0,8.88,0,17.77,0,26.65ZM49.81,30.46c0-8.88-.02-17.77.03-26.65,0-1.19-.36-1.52-1.52-1.49-3.46.07-6.93.05-10.39,0-.93-.01-1.24.31-1.23,1.23.04,3.15.02,6.31.02,9.46,0,2.02-.1,2.12-2.11,2.12-10.26,0-20.51.02-30.77-.02-1.15,0-1.55.29-1.52,1.49.08,3.28.03,6.57.03,9.86q0,1.77,1.72,1.77c10.08,0,20.16,0,30.24,0,2.31,0,2.42.11,2.42,2.4,0,17.37.01,34.73-.02,52.1,0,1.17.33,1.53,1.5,1.51,3.42-.07,6.84-.06,10.26,0,1.04.02,1.4-.29,1.38-1.36-.06-3.02.01-6.04-.04-9.06-.02-1.27.57-1.78,1.75-1.8.44,0,.89,0,1.33,0,9.9,0,19.8-.02,29.71.03,1.3,0,1.66-.4,1.63-1.67-.08-3.2-.1-6.4,0-9.59.04-1.37-.37-1.72-1.72-1.71-10.08.06-20.16.03-30.24.03-2.3,0-2.45-.15-2.45-2.39,0-8.75,0-17.5,0-26.25Z"/><path class="cls-1" d="M14.79,40.19c6.9.04,12.61,5.34,12.79,12.23.05,1.9-.59,3.94-1.39,5.7-2.63,5.89-5.47,11.69-8.25,17.51-.67,1.4-1.35,2.81-2.1,4.17-.22.39-.7.88-1.07.88-.36,0-.9-.46-1.09-.85-3.49-7.21-6.96-14.43-10.4-21.66-2.01-4.22-1.9-8.37.76-12.28,2.56-3.76,6.16-5.71,10.75-5.72ZM14.74,77.08c.15-.14.23-.18.26-.25,3.26-6.88,6.54-13.76,9.74-20.66.68-1.47.96-3.03.71-4.75-.84-5.92-6.81-10.16-12.69-9.05-5.71,1.07-11,7.64-7.8,14.4,3.14,6.64,6.29,13.28,9.44,19.91.06.13.19.23.33.4Z"/><path class="cls-1" d="M49.81,30.46c0,8.75,0,17.5,0,26.25,0,2.24.15,2.39,2.45,2.39,10.08,0,20.16.03,30.24-.03,1.34,0,1.76.34,1.72,1.71-.1,3.19-.09,6.4,0,9.59.03,1.27-.33,1.67-1.63,1.67-9.9-.05-19.8-.03-29.71-.03-.44,0-.89,0-1.33,0-1.18.02-1.77.53-1.75,1.8.05,3.02-.03,6.04.04,9.06.02,1.07-.34,1.38-1.38,1.36-3.42-.06-6.84-.07-10.26,0-1.17.02-1.51-.34-1.5-1.51.03-17.37.02-34.73.02-52.1,0-2.29-.11-2.4-2.42-2.4-10.08,0-20.16,0-30.24,0q-1.72,0-1.72-1.77c0-3.29.05-6.57-.03-9.86-.03-1.2.37-1.49,1.52-1.49,10.26.04,20.51.02,30.77.02,2.01,0,2.11-.1,2.11-2.12,0-3.15.03-6.31-.02-9.46-.01-.93.3-1.24,1.23-1.23,3.46.04,6.93.06,10.39,0,1.16-.02,1.52.31,1.52,1.49-.05,8.88-.03,17.77-.03,26.65ZM44.95,21.07c-.04-.61.03-1.4-.18-2.1-.12-.41-.72-.99-1.04-.95-.43.05-1.11.59-1.14.97-.14,1.4-.14,2.82,0,4.22.04.39.73,1.01,1.1,1,.4-.01.95-.59,1.11-1.04.21-.6.11-1.31.15-2.1ZM44.96,43.35c-.05-.8.04-1.55-.18-2.19-.15-.44-.72-.93-1.16-.99-.31-.04-.99.58-1.02.95-.12,1.44-.11,2.91.01,4.35.03.36.68.92,1.06.92.37,0,.96-.5,1.09-.9.22-.69.16-1.48.21-2.14ZM42.4,10.13c.04.66-.02,1.39.18,2.05.13.41.7,1,1.01.97.43-.05,1.13-.58,1.16-.95.13-1.44.11-2.9-.01-4.34-.03-.34-.74-.92-1.05-.87-.43.07-.97.57-1.12,1-.22.64-.13,1.39-.17,2.14ZM44.96,32.12c-.05-.65,0-1.44-.22-2.13-.13-.39-.72-.88-1.09-.87-.37,0-1.02.55-1.05.9-.12,1.44-.12,2.9,0,4.34.03.36.71.97,1.03.93.43-.06,1-.55,1.15-.99.22-.64.14-1.39.19-2.19ZM44.97,54.48c-.06-.83,0-1.61-.21-2.31-.12-.4-.7-.9-1.07-.91-.37,0-1.04.54-1.07.88-.11,1.48-.1,2.98.01,4.47.02.32.65.85.97.83.41-.03,1-.45,1.12-.82.23-.69.18-1.47.25-2.14ZM42.39,65.44c.05.71,0,1.49.21,2.19.13.4.69.92,1.06.92.37,0,1.05-.55,1.07-.9.12-1.48.11-2.98,0-4.46-.03-.32-.74-.82-1.11-.8-.37.02-.9.53-1.03.92-.21.65-.14,1.39-.2,2.13ZM44.96,76.47c-.05-.69,0-1.47-.21-2.17-.13-.4-.7-.91-1.08-.91-.37,0-1.03.55-1.06.9-.13,1.44-.13,2.9-.02,4.34.03.36.7.96,1.01.92.43-.04,1.01-.52,1.16-.94.23-.64.14-1.39.19-2.15ZM58.61,66.85c.68-.04,1.4.06,1.99-.17.43-.17.9-.75.95-1.2.04-.29-.6-.93-.98-.97-1.18-.13-2.39-.14-3.56-.01-.38.04-1,.66-.97.96.04.44.48,1.01.91,1.21.48.23,1.12.13,1.68.17ZM67.9,66.85c.8-.05,1.47.06,2.01-.17.45-.18,1-.76,1-1.16,0-.36-.66-.98-1.08-1.03-1.18-.13-2.39-.1-3.57.02-.35.04-.91.59-.9.91,0,.41.39,1.02.76,1.18.58.25,1.29.19,1.78.25ZM77.34,66.85c.71-.04,1.39.06,1.93-.16.45-.18,1-.75,1.01-1.16,0-.35-.66-.97-1.08-1.02-1.13-.14-2.3-.12-3.44,0-.4.05-1.06.62-1.04.9.03.45.47,1.04.89,1.23.53.25,1.21.15,1.74.2ZM18.4,22.86c.53,0,1.12.14,1.58-.04.48-.19,1.07-.65,1.18-1.09.07-.29-.58-1.06-.98-1.11-1.18-.15-2.4-.16-3.57,0-.4.05-.72.74-1.08,1.14.42.37.8.87,1.29,1.07.46.18,1.05.04,1.58.04ZM27.79,22.85h0c.57,0,1.19.12,1.71-.05.42-.13,1.02-.65,1-.96-.03-.44-.51-1.17-.87-1.22-1.22-.16-2.48-.16-3.69-.01-.39.05-.96.77-.95,1.17,0,.36.64.86,1.1,1.02.51.18,1.14.04,1.71.04ZM8.99,22.85c.58,0,1.2.14,1.72-.04.46-.16.8-.66,1.19-1.02-.38-.42-.72-1.13-1.15-1.2-1.13-.17-2.31-.17-3.44,0-.43.07-.76.8-1.13,1.22.4.34.76.82,1.23.99.47.17,1.05.04,1.58.04Z"/><path class="cls-1" d="M14.74,77.08c-.14-.17-.27-.27-.33-.4-3.15-6.64-6.3-13.27-9.44-19.91-3.2-6.76,2.09-13.33,7.8-14.4,5.88-1.11,11.86,3.13,12.69,9.05.24,1.72-.03,3.28-.71,4.75-3.2,6.91-6.48,13.78-9.74,20.66-.03.06-.11.11-.26.25ZM8.8,53c0,3.38,2.59,6.04,5.91,6.08,3.32.04,6.08-2.74,6.06-6.1-.02-3.33-2.69-5.98-6.02-5.98-3.35,0-5.95,2.62-5.95,6Z"/><path class="cls-1" d="M71.69,3.74c6.9.04,12.61,5.34,12.79,12.23.05,1.9-.59,3.94-1.39,5.7-2.63,5.89-5.47,11.69-8.25,17.51-.67,1.4-1.35,2.81-2.1,4.17-.22.39-.7.88-1.07.88-.36,0-.9-.46-1.09-.85-3.49-7.21-6.96-14.43-10.4-21.66-2.01-4.22-1.9-8.37.76-12.28,2.56-3.76,6.16-5.71,10.75-5.72ZM71.64,40.64c.15-.14.23-.18.26-.25,3.26-6.88,6.54-13.76,9.74-20.66.68-1.47.96-3.03.71-4.75-.84-5.92-6.81-10.16-12.69-9.05-5.71,1.07-11,7.64-7.8,14.4,3.14,6.64,6.29,13.28,9.44,19.91.06.13.19.23.33.4Z"/><path class="cls-1" d="M71.64,40.64c-.14-.17-.27-.27-.33-.4-3.15-6.64-6.3-13.27-9.44-19.91-3.2-6.76,2.09-13.33,7.8-14.4,5.88-1.11,11.86,3.13,12.69,9.05.24,1.72-.03,3.28-.71,4.75-3.2,6.91-6.48,13.78-9.74,20.66-.03.06-.11.11-.26.25ZM65.7,16.56c0,3.38,2.59,6.04,5.91,6.08,3.32.04,6.08-2.74,6.06-6.1-.02-3.33-2.69-5.98-6.02-5.98-3.35,0-5.95,2.62-5.95,6Z"/></g></svg>