<?xml version="1.0" encoding="UTF-8"?><svg id="Calque_2" xmlns="http://www.w3.org/2000/svg" viewBox="0 0 82.27 79.7"><defs><style>.cls-1{fill:#cc1517;stroke-width:0px;}</style></defs><g id="Calque_1-2"><g id="_97PwoS"><path class="cls-1" d="M82.27,78.89c-.46.65-1.08.82-1.86.82-10.33-.02-20.67-.01-31-.01-.05,0-.11,0-.16,0-.69.04-1.29-.11-1.58-.83-.28-.69.07-1.17.53-1.63,2.07-2.06,4.13-4.13,6.19-6.19q1.64-1.64,3.29,0c.17.17.33.35.51.51.62.54,1.36.54,1.87,0,.49-.51.49-1.23-.04-1.81-.51-.55-1.04-1.09-1.59-1.59-.47-.43-.42-.77.02-1.2,1.68-1.62,1.22-1.61,2.84-.03.29.28.55.59.86.84.57.46,1.26.43,1.74-.05.48-.48.53-1.19.05-1.74-.53-.6-1.11-1.16-1.69-1.72-.39-.37-.43-.69-.02-1.08,1.79-1.74,1.27-1.7,2.95-.07.29.28.55.59.87.83.56.44,1.15.41,1.68-.07.51-.45.57-1.19.09-1.73-.53-.6-1.1-1.17-1.69-1.72-.42-.4-.44-.73-.01-1.14,1.74-1.68,1.25-1.66,2.9-.05.17.17.34.34.51.51.77.76,1.52.84,2.1.25.56-.58.47-1.31-.25-2.04-.47-.48-.93-.96-1.42-1.42-.4-.38-.39-.7,0-1.08,1.78-1.72,1.26-1.69,2.95-.04.25.24.48.51.74.73.59.51,1.3.51,1.81,0,.5-.5.53-1.23.01-1.8-.5-.56-1.03-1.09-1.59-1.59-.44-.41-.5-.74-.04-1.2,2.04-2.01,4.05-4.05,6.09-6.07.82-.81,1.47-.72,2.34.28v33.1ZM70.04,74.55c1.82,0,3.64,0,5.46,0,1.16,0,1.62-.45,1.62-1.59,0-3.67,0-7.33,0-11,0-.64-.17-1.16-.8-1.43-.64-.28-1.13-.01-1.58.44-3.73,3.73-7.45,7.46-11.19,11.19-.45.45-.74.92-.48,1.57.27.67.82.84,1.49.84,1.82-.02,3.64,0,5.46,0Z"/><path class="cls-1" d="M26.49,76.44c-.36-.25-.45-.59-.45-1.02.02-1.7,0-3.4,0-5.1,0-.69.23-.92.92-.92,1.73,0,3.46,0,5.18,0,.69,0,.92.23.93.92,0,1.7-.01,3.4,0,5.1,0,.43-.09.77-.45,1.02h-6.16Z"/><path class="cls-1" d="M30.89,66.84c-7.63,0-15.26,0-22.89,0-3.97,0-7.23-2.66-7.85-6.45-.51-3.07.5-5.64,3.03-7.45,2.59-1.85,5.39-2.05,8.25-.57.21.11.41.26.62.37.5.26.76.07.81-.47.02-.24,0-.48,0-.72,0-13.12,0-26.24,0-39.36,0-1.55.35-1.9,1.87-1.9,13.98,0,27.95,0,41.93,0q1.19,0,1.19,1.22c0,8.38-.02,16.76.02,25.14,0,.88.19,1.82.52,2.64,1.14,2.82,2.38,5.61,3.59,8.41.67,1.55,1.87,2.4,3.56,2.42,1.69.01,2.91-.83,3.58-2.38,1.28-2.94,2.55-5.89,3.78-8.85.25-.6.36-1.29.36-1.95.02-8.49.02-16.98.02-25.46,0-1.2.24-1.36,1.38-.92,1.55.61,2.47,1.98,2.47,3.77,0,5.35,0,10.71,0,16.06,0,4.5.02,9-.02,13.49,0,.45-.22,1-.53,1.32-7,7.05-14.03,14.07-21.07,21.07-.31.31-.87.54-1.32.54-7.76.03-15.53.02-23.29.02ZM38.55,55.27c4.12,0,8.24,0,12.37,0,1.38,0,1.79-.4,1.79-1.74,0-6.56,0-13.12,0-19.68,0-.66-.2-1.17-.67-1.64-4.1-4.08-8.18-8.17-12.27-12.26-.91-.91-1.49-.92-2.38-.03-4.05,4.05-8.09,8.11-12.16,12.14-.58.58-.81,1.18-.81,1.98.02,6.48.01,12.96.01,19.43,0,1.4.39,1.78,1.83,1.78,4.1,0,8.19,0,12.29,0Z"/><path class="cls-1" d="M0,29.72c0-6.9-.02-13.81,0-20.71.02-3.89,4.04-6.34,7.46-4.57,1.85.96,2.79,2.54,2.8,4.62.03,4.01,0,8.03,0,12.04,0,8.94,0,17.88,0,26.81,0,1.15-.07,1.19-1.19,1.04-2.94-.4-5.55.4-7.89,2.2-.27.21-.64.27-.96.4-.08-.32-.24-.64-.24-.96-.01-6.96-.01-13.92,0-20.87Z"/><path class="cls-1" d="M70.7,22.89c0,4.63,0,9.26,0,13.9,0,1.36-.4,1.77-1.77,1.77-2.3,0-4.61,0-6.91,0-1.15,0-1.6-.45-1.6-1.61,0-9.43,0-18.85-.01-28.28,0-.74.24-.98.98-.98,2.78.03,5.57.03,8.35,0,.74,0,.98.24.98.98-.02,4.74-.01,9.48-.01,14.22Z"/><path class="cls-1" d="M65.48,5.14c-1.39,0-2.78,0-4.17,0-.8,0-.94-.19-.78-.97C61,1.72,63.12-.02,65.6,0c2.44.02,4.52,1.76,4.99,4.17.15.78.01.96-.79.97-1.44,0-2.89,0-4.33,0Z"/><path class="cls-1" d="M65.55,41.13c1.04,0,2.08,0,3.12,0,.75,0,.91.25.62.94-.83,1.97-1.63,3.94-2.54,5.87-.19.4-.78.83-1.19.83-.41,0-1.01-.43-1.19-.82-.91-1.93-1.72-3.9-2.54-5.87-.3-.7-.14-.94.61-.95,1.04-.01,2.08,0,3.12,0Z"/><path class="cls-1" d="M24.64,72.95c0,.73,0,1.46,0,2.19,0,.12-.07.24-.1.35-.11-.05-.24-.08-.33-.16-1.29-1.25-1.28-3.61,0-4.84.08-.08.22-.1.33-.15.03.1.09.21.09.31,0,.76,0,1.52,0,2.28Z"/><path class="cls-1" d="M34.49,72.9c0-.75,0-1.49,0-2.24,0-.11.06-.21.09-.31.11.05.24.07.33.15,1.29,1.23,1.29,3.6,0,4.84-.08.08-.22.11-.33.16-.04-.12-.1-.24-.1-.36,0-.75,0-1.49,0-2.24Z"/><path class="cls-1" d="M74.56,68.72c0,.83-.01,1.65,0,2.48.01.53-.2.78-.75.78-1.68-.01-3.36,0-5.04-.02-.21,0-.56-.13-.59-.26-.05-.21.04-.53.19-.69,1.72-1.75,3.46-3.49,5.21-5.21.16-.16.51-.29.68-.22.17.07.28.42.29.65.03.83.01,1.65.01,2.48Z"/><path class="cls-1" d="M38.59,34.7c3.48,0,6.96,0,10.44,0,1.08,0,1.1.02,1.1,1.06,0,5.28,0,10.55,0,15.83,0,1.08-.03,1.1-1.06,1.1-.96,0-1.93,0-2.89,0q-1.18,0-1.18-1.23c0-2.46,0-4.93,0-7.39,0-1.22-.44-1.66-1.63-1.66-3.19,0-6.37,0-9.56,0-1.24,0-1.66.43-1.66,1.71,0,2.52-.02,5.03.01,7.55.01.75-.2,1.08-1,1.04-1.1-.05-2.2-.03-3.29,0-.61.01-.87-.19-.87-.83.01-5.44.02-10.87,0-16.31,0-.68.27-.87.91-.87,3.56.02,7.12,0,10.68,0Z"/><path class="cls-1" d="M38.59,32.13c-2.7,0-5.41,0-8.11-.01-.3,0-.61-.2-.91-.3.15-.29.24-.64.45-.86,2.6-2.63,5.23-5.22,7.82-7.86.53-.54.88-.6,1.44-.03,2.61,2.65,5.26,5.27,7.87,7.92.21.21.28.58.41.87-.29.09-.57.26-.86.26-2.7.02-5.41.01-8.11.01Z"/><path class="cls-1" d="M42.42,48.91c0,1.02,0,2.04,0,3.05,0,.5-.21.74-.72.73-2.09,0-4.18,0-6.27,0-.5,0-.74-.21-.73-.72,0-2.09,0-4.18,0-6.27,0-.5.21-.74.72-.73,2.09,0,4.18.01,6.27,0,.57,0,.74.28.74.8-.02,1.04,0,2.09,0,3.13Z"/></g></g></svg>